# xmcd
#
# Track frame offsets:
#	150
#	15388
#	30824
#	47483
#	68533
#	85753
#	100169
#	116017
#	129373
#	147409
#	163997
#	177687
#	193930
#	209248
#	226154
#	244341
#	261998
#	277035
#	295230
#	309169
#	325603
#
# Disc length: 4569 seconds
#
# Revision: 2
# Processed by: cddbd v1.5.2PL0 Copyright (c) Steve Scherf et al.
# Submitted via: EasyCDDAExtractor 11.5.0.1
#
DISCID=2f11d715
DTITLE=Various Artist - NCT 082
DYEAR=2006
DGENRE=Country
TTITLE0=Gretchen Wilson ft. Merle Haggard - Politically Uncorrect
TTITLE1=Big and Rich - Never Mind Me
TTITLE2=Dierks Bentley - Settle For A Slowdown
TTITLE3=Garth Brooks and Trisha Yearwood - Love Will Always Win
TTITLE4=Eric Church - How 'Bout You
TTITLE5=Reba McEntire - Love Needs A Holiday
TTITLE6=Chris Cagle - The Wal-Mart Parking Lot
TTITLE7=Martina McBride ft. Dolly Parton - I Still Miss Someone
TTITLE8=Terri Clark - Damn Right
TTITLE9=Ternt Willmon - On Again Tonight
TTITLE10=Scotty Emerick - What's Up With That
TTITLE11=Steve Holy - Brand New Girlfriend
TTITLE12=Shooter Jennings - Aviators
TTITLE13=Blaine Larson - I Don't Know What She Said
TTITLE14=Hal Ketchum - Just This Side Of Heaven (Hal-Lelujah)
TTITLE15=Phil Vassar - Last Day of My Life
TTITLE16=Ty England - Redneck Anthem
TTITLE17=Little Big Town - Bring It On Home
TTITLE18=Br549 - After The Hurricane
TTITLE19=Doug Stone - Time
TTITLE20=Mark McGuinn - One Man's Crazy
EXTD=
EXTT0=
EXTT1=
EXTT2=
EXTT3=
EXTT4=
EXTT5=
EXTT6=
EXTT7=
EXTT8=
EXTT9=
EXTT10=
EXTT11=
EXTT12=
EXTT13=
EXTT14=
EXTT15=
EXTT16=
EXTT17=
EXTT18=
EXTT19=
EXTT20=
PLAYORDER=
